<svg width="106" height="106" viewBox="0 0 106 106" fill="none" xmlns="http://www.w3.org/2000/svg">
<rect opacity="0.14" width="106" height="106" rx="30" fill="#486284"/>
<path fill-rule="evenodd" clip-rule="evenodd" d="M58.8547 37.7738C58.5176 37.7738 58.1944 37.6399 57.9561 37.4016C57.7177 37.1632 57.5839 36.84 57.5839 36.503V30.6597C56.3742 30.1213 55.0879 29.7753 53.7714 29.6341V33.9613C53.7714 34.2983 53.6375 34.6216 53.3991 34.8599C53.1608 35.0982 52.8376 35.2321 52.5005 35.2321C52.1635 35.2321 51.8402 35.0982 51.6019 34.8599C51.3636 34.6216 51.2297 34.2983 51.2297 33.9613V29.5642C49.9176 29.6328 48.6274 29.9296 47.4172 30.4411V36.503C47.4172 36.84 47.2833 37.1632 47.045 37.4016C46.8066 37.6399 46.4834 37.7738 46.1464 37.7738C45.8093 37.7738 45.4861 37.6399 45.2477 37.4016C45.0094 37.1632 44.8755 36.84 44.8755 36.503V32.0233C43.7442 32.9937 42.8563 34.2159 42.283 35.5918C42.161 35.6934 42.0416 35.7993 41.9246 35.9095C41.6158 37.0659 41.6489 38.0343 41.8675 38.6418C41.9749 38.9574 41.9541 39.3026 41.8094 39.6029C41.6648 39.9033 41.4078 40.1348 41.0941 40.2475C40.7803 40.3602 40.4348 40.3451 40.1321 40.2054C39.8294 40.0658 39.5936 39.8127 39.4757 39.5009C39.3979 39.283 39.3351 39.0601 39.2877 38.8337C37.4246 41.4401 39.1428 43.3235 42.4559 44.4851C42.2298 45.9351 42.3203 47.4169 42.7212 48.8286C43.1221 50.2403 43.8239 51.5485 44.7783 52.6633C45.7328 53.7781 46.9172 54.673 48.2503 55.2866C49.5835 55.9002 51.0336 56.2179 52.5012 56.2179C53.9687 56.2179 55.4189 55.9002 56.752 55.2866C58.0851 54.673 59.2695 53.7781 60.224 52.6633C61.1784 51.5485 61.8802 50.2403 62.2811 48.8286C62.682 47.4169 62.7725 45.9351 62.5465 44.4851C65.8646 43.321 67.5828 41.4325 65.7032 38.8184C65.6524 39.0472 65.5888 39.2717 65.5126 39.492C65.4593 39.6519 65.3747 39.7996 65.2638 39.9265C65.1528 40.0534 65.0177 40.157 64.8664 40.2312C64.715 40.3054 64.5504 40.3488 64.3822 40.3588C64.2139 40.3687 64.0453 40.3451 63.8862 40.2893C63.7272 40.2335 63.5808 40.1466 63.4557 40.0337C63.3305 39.9208 63.229 39.7841 63.1572 39.6316C63.0854 39.4791 63.0446 39.3138 63.0373 39.1454C63.03 38.977 63.0562 38.8088 63.1145 38.6507C63.3623 37.9441 63.3687 37.0049 63.0929 35.9845C62.9947 35.9295 62.8947 35.8778 62.793 35.8294C62.2821 34.5713 61.39 33.3094 60.1255 32.2482V36.5055C60.1255 36.8425 59.9916 37.1658 59.7533 37.4041C59.515 37.6424 59.1917 37.7763 58.8547 37.7763M53.3189 45.8779C53.5451 45.7704 53.7478 45.6195 53.9156 45.4336C54.0834 45.2478 54.2129 45.0307 54.2969 44.7948C54.3808 44.5589 54.4174 44.3088 54.4046 44.0588C54.3919 43.8087 54.33 43.5636 54.2225 43.3375C54.115 43.1114 53.9641 42.9086 53.7782 42.7408C53.5924 42.573 53.3753 42.4435 53.1394 42.3596C52.9035 42.2757 52.6534 42.2391 52.4034 42.2518C52.1533 42.2646 51.9082 42.3265 51.6821 42.4339C51.2254 42.651 50.8736 43.0406 50.7042 43.517C50.5347 43.9934 50.5615 44.5176 50.7785 44.9743C50.9956 45.431 51.3852 45.7828 51.8616 45.9522C52.338 46.1217 52.8622 46.095 53.3189 45.8779ZM52.5005 48.6013C54.4195 48.6013 56.0538 47.3864 56.6777 45.6847C57.8181 45.5759 58.9522 45.4101 60.076 45.1878C60.109 45.4742 60.1255 45.7648 60.1255 46.0596C60.125 47.0974 59.9126 48.1241 59.5014 49.077C59.0903 50.0298 58.4889 50.8887 57.7342 51.601C56.9795 52.3133 56.0873 52.8641 55.1123 53.2195C54.1373 53.575 53.1 53.7277 52.0639 53.6683C51.0278 53.6089 50.0148 53.3386 49.0868 52.874C48.1589 52.4094 47.3355 51.7602 46.6672 50.9663C45.9989 50.1724 45.4996 49.2504 45.2001 48.2568C44.9005 47.2632 44.8069 46.2189 44.9251 45.1878C45.9951 45.4039 47.1389 45.5691 48.3233 45.6835C48.6368 46.5392 49.2056 47.2779 49.9527 47.7998C50.6998 48.3217 51.5892 48.6014 52.5005 48.6013Z" fill="#486284"/>
<path d="M53.7713 29.5389C53.7713 29.2019 53.6375 28.8786 53.3991 28.6403C53.1608 28.402 52.8376 28.2681 52.5005 28.2681C52.1635 28.2681 51.8402 28.402 51.6019 28.6403C51.3636 28.8786 51.2297 29.2019 51.2297 29.5389H53.7713Z" fill="#486284"/>
<path fill-rule="evenodd" clip-rule="evenodd" d="M58.176 56.7346C59.6375 56.9685 61.1599 57.2811 62.6671 57.6687V74.018H42.3338V57.6687C43.816 57.2899 45.3146 56.9782 46.8249 56.7346L51.2296 60.0388H53.7713L58.176 56.7346ZM55.0421 67.6638C55.0421 68.3379 54.7744 68.9844 54.2977 69.461C53.821 69.9377 53.1746 70.2055 52.5005 70.2055C51.8264 70.2055 51.1799 69.9377 50.7032 69.461C50.2266 68.9844 49.9588 68.3379 49.9588 67.6638C49.9588 66.9897 50.2266 66.3432 50.7032 65.8666C51.1799 65.3899 51.8264 65.1221 52.5005 65.1221C53.1746 65.1221 53.821 65.3899 54.2977 65.8666C54.7744 66.3432 55.0421 66.9897 55.0421 67.6638Z" fill="#486284"/>
<path d="M37.2505 59.3082C38.0863 58.9735 38.9341 58.6696 39.7922 58.397V74.0181H37.2505V59.3082ZM65.2088 58.397C66.0819 58.6766 66.9333 58.9803 67.7505 59.3082V74.0181H65.2088V58.397ZM34.7088 60.4773C31.7033 62.0684 29.6255 64.0636 29.6255 66.3931V74.0181H34.7088V60.4773ZM75.3755 66.3931C75.3755 64.0636 73.2977 62.0671 70.2922 60.4773V74.0181H75.3755V66.3931Z" fill="#486284"/>
</svg>
