<svg width="106" height="106" viewBox="0 0 106 106" fill="none" xmlns="http://www.w3.org/2000/svg">
<rect opacity="0.14" width="106" height="106" rx="30" fill="#486284"/>
<path d="M47.6255 60.0181C41.5067 60.0181 29.2922 63.0889 29.2922 69.1847V71.4764C29.2922 72.7368 30.3234 73.7681 31.5838 73.7681H63.6672C64.9276 73.7681 65.9588 72.7368 65.9588 71.4764V69.1847C65.9588 63.0889 53.7442 60.0181 47.6255 60.0181ZM37.863 46.2681H57.4109C58.0297 46.2681 58.5338 45.7639 58.5338 45.1452V45.0993C58.5338 44.8015 58.4155 44.5159 58.2049 44.3053C57.9943 44.0947 57.7087 43.9764 57.4109 43.9764H56.7922C56.7922 40.5847 54.9359 37.6743 52.2088 36.0702V38.2472C52.2088 38.8889 51.7047 39.3931 51.063 39.3931C50.4213 39.3931 49.9172 38.8889 49.9172 38.2472V35.1306C49.1838 34.9472 48.4276 34.8097 47.6255 34.8097C46.8234 34.8097 46.0672 34.9472 45.3338 35.1306V38.2472C45.3338 38.8889 44.8297 39.3931 44.188 39.3931C43.5463 39.3931 43.0422 38.8889 43.0422 38.2472V36.0702C40.3151 37.6743 38.4588 40.5847 38.4588 43.9764H37.863C37.7155 43.9764 37.5695 44.0054 37.4333 44.0619C37.297 44.1183 37.1732 44.201 37.069 44.3053C36.9647 44.4096 36.882 44.5334 36.8256 44.6696C36.7691 44.8058 36.7401 44.9519 36.7401 45.0993V45.1681C36.7401 45.7639 37.2442 46.2681 37.863 46.2681ZM47.6255 55.4347C51.888 55.4347 55.4401 52.5014 56.4713 48.5597H38.7797C39.8109 52.5014 43.363 55.4347 47.6255 55.4347ZM77.3713 39.9201L79.5026 38.0181L77.7838 35.0389L75.0567 35.9326C74.7359 35.6806 74.3692 35.4743 73.9797 35.3139L73.4067 32.5181H69.9692L69.3963 35.3139C69.0067 35.4743 68.6401 35.6806 68.2963 35.9326L65.5922 35.0389L63.8734 38.0181L66.0047 39.9201C65.9588 40.3097 65.9588 40.7222 66.0047 41.1118L63.8734 43.0597L65.5922 46.0389L68.3422 45.1681C68.6401 45.3972 68.9838 45.5806 69.3276 45.741L69.9692 48.5597H73.4067L74.0255 45.7639C74.3922 45.6035 74.713 45.4201 75.0338 45.191L77.7609 46.0618L79.4797 43.0827L77.3484 41.1347C77.4172 40.6993 77.3942 40.3097 77.3713 39.9201ZM71.688 43.4035C70.9283 43.4035 70.1996 43.1017 69.6624 42.5645C69.1252 42.0273 68.8234 41.2986 68.8234 40.5389C68.8234 39.7792 69.1252 39.0505 69.6624 38.5133C70.1996 37.9761 70.9283 37.6743 71.688 37.6743C72.4477 37.6743 73.1763 37.9761 73.7136 38.5133C74.2508 39.0505 74.5526 39.7792 74.5526 40.5389C74.5526 41.2986 74.2508 42.0273 73.7136 42.5645C73.1763 43.1017 72.4477 43.4035 71.688 43.4035ZM71.4588 50.3701L69.5109 51.0118C69.2817 50.8285 69.0297 50.691 68.7547 50.5764L68.3422 48.5597H65.8901L65.4776 50.5535C65.2026 50.6681 64.9276 50.8285 64.6984 50.9889L62.7734 50.3472L61.5359 52.4785L63.0484 53.8306C63.0255 54.1285 63.0255 54.4035 63.0484 54.6785L61.5359 56.0764L62.7734 58.2077L64.7442 57.5889C64.9734 57.7493 65.2026 57.8868 65.4547 58.0014L65.8672 60.0181H68.3192L68.7547 58.0243C69.0067 57.9097 69.2588 57.7722 69.488 57.6118L71.4359 58.2306L72.6734 56.0993L71.1609 54.7014C71.1838 54.4035 71.1838 54.1285 71.1609 53.8535L72.6734 52.5014L71.4588 50.3701ZM67.1047 56.3285C65.9817 56.3285 65.0651 55.4118 65.0651 54.2889C65.0651 53.166 65.9817 52.2493 67.1047 52.2493C68.2276 52.2493 69.1442 53.166 69.1442 54.2889C69.1442 55.4118 68.2276 56.3285 67.1047 56.3285Z" fill="#486284"/>
</svg>
