<svg width="106" height="106" viewBox="0 0 106 106" fill="none" xmlns="http://www.w3.org/2000/svg">
<rect opacity="0.14" width="106" height="106" rx="30" fill="#486284"/>
<path d="M53.0005 59.3931C43.0555 59.3931 35.0005 63.4206 35.0005 68.3931V72.8931H71.0005V68.3931C71.0005 63.4206 62.9455 59.3931 53.0005 59.3931ZM44.0005 45.8931C44.0005 48.28 44.9487 50.5692 46.6365 52.257C48.3244 53.9449 50.6135 54.8931 53.0005 54.8931C55.3874 54.8931 57.6766 53.9449 59.3645 52.257C61.0523 50.5692 62.0005 48.28 62.0005 45.8931M51.8755 30.1431C51.2005 30.1431 50.7505 30.6156 50.7505 31.2681V38.0181H48.5005V32.3931C48.5005 32.3931 43.438 34.3281 43.438 40.8306C43.438 40.8306 41.7505 41.1456 41.7505 43.6431H64.2505C64.138 41.1456 62.563 40.8306 62.563 40.8306C62.563 34.3281 57.5005 32.3931 57.5005 32.3931V38.0181H55.2505V31.2681C55.2505 30.6156 54.823 30.1431 54.1255 30.1431H51.8755Z" fill="#486284"/>
</svg>
