<svg width="413" height="487" viewBox="0 0 413 487" fill="none" xmlns="http://www.w3.org/2000/svg">
<path d="M208.4 0.276794C207.333 0.543457 201.867 1.47679 196.4 2.41013C190.933 3.34346 184.4 4.94347 181.867 5.8768L177.467 7.74345L178.267 17.3435C178.8 22.6768 179.733 30.4101 180.4 34.5435C181.2 38.8101 182.267 45.7435 183.067 49.8768C185.333 63.7435 186.267 81.7435 184.533 80.1435C183.733 79.3435 182.8 77.4768 182.533 76.0101C182.267 74.5435 181.333 71.0768 180.533 68.1435C179.2 63.0768 175.067 45.2101 172.267 32.9435C169.867 22.4101 168 16.9435 166.267 15.4768C164.133 13.7435 158.667 16.4101 152.4 22.5435C136.133 38.4101 130.133 48.6768 125.6 69.4768C124.133 76.1435 123.2 77.6101 118.8 80.4101L113.733 83.6101V96.6768C113.733 110.543 114.267 112.143 118.4 113.477C120.933 114.143 121.067 115.477 121.2 132.543C121.2 148.143 121.733 152.41 124.4 160.677C127.333 169.743 129.467 173.077 135.467 177.343C136.933 178.277 139.067 183.21 140.533 188.943C142 194.41 144 199.61 145.067 200.41C146.133 201.21 147.067 203.077 147.067 204.41C147.2 211.61 167.467 230.943 182.4 238.143C194.933 244.277 200.133 245.477 214.4 245.477C228.667 245.477 233.867 244.277 246.533 238.143C255.733 233.743 261.6 229.077 272.533 218.01C280.933 209.21 285.867 200.01 288.533 187.743C290 180.81 291.067 178.677 294 177.077C300.267 173.477 304.267 164.943 307.067 148.677C308.667 138.677 308.4 122.41 306.4 117.877C305.6 116.01 306.267 115.21 309.6 113.877C314.4 112.143 316.4 107.477 316.4 98.2768C316.4 87.4768 315.067 83.4768 310.4 80.8101C305.467 77.8768 303.867 75.0768 301.6 64.2768C298.533 49.3435 292.4 38.8101 279.6 25.8768C268.4 14.5435 261.733 11.7435 261.733 18.4101C261.733 19.7435 261.2 20.9435 260.533 20.9435C259.867 20.9435 258.133 26.5435 256.533 33.2101C246.533 76.0101 245.6 79.4768 244.267 80.4101C241.6 82.0101 242.8 68.2768 248.533 32.9435C249.2 28.1435 250.267 20.5435 250.667 16.0101C251.467 7.74345 251.333 7.61012 247.6 6.14346C238.667 2.67679 214 -1.05653 208.4 0.276794ZM161.733 129.61C176.4 133.877 217.467 135.477 245.6 132.81C261.6 131.343 268.133 129.877 280.133 125.077L287.2 122.277L288.4 125.743C290.133 130.143 290 135.477 287.867 146.943C285.733 158.677 284 162.01 278.4 164.41C272.8 166.677 272.667 166.81 270.4 178.943C267.467 193.743 262.533 202.943 252.667 211.877C248 216.01 240.8 221.21 236.667 223.21C229.733 226.677 227.733 226.943 214.4 226.943C200.933 226.943 199.067 226.677 191.733 223.077C174.133 214.41 157.733 191.61 157.733 175.877C157.733 170.81 154.667 166.143 150.133 164.277C144 161.743 141.6 155.343 140.8 139.477C139.733 121.877 139.867 121.61 148.667 125.077C152.533 126.677 158.4 128.677 161.733 129.61Z" fill="white"/>
<path d="M89.7333 78.6768C68.4 89.4768 45.3333 94.2768 14.5333 94.2768H0L0.933333 118.543C2.8 171.077 8.66667 215.077 18.2667 250.943C22.8 267.477 28.8 285.61 30.4 286.943C31.2 287.61 32.4 290.943 32.9333 294.277C33.4667 297.477 34.2667 300.81 34.9333 301.61C35.4667 302.277 37.3333 306.543 39.0667 310.943C42.4 319.477 49.3333 333.61 57.2 347.61C64.5333 360.943 84.4 390.277 87.2 392.01C88.6667 392.943 89.7333 394.143 89.7333 394.943C89.7333 396.41 93.7333 400.943 113.467 422.01C127.733 437.343 143.867 451.61 147.067 451.61C148 451.61 148.4 452.01 148 452.41C146.133 454.277 169.2 469.61 191.733 481.61C203.6 488.01 209.067 488.144 219.733 482.81C248.8 468.143 277.067 446.944 302.533 420.81C309.867 413.21 317.067 405.21 318.4 403.21C319.733 401.077 322.533 397.61 324.533 395.477C328.133 391.743 349.733 360.543 349.733 359.21C349.733 358.81 352.267 354.41 355.333 349.477C358.4 344.41 364.133 333.343 368 324.943C372 316.543 375.733 308.543 376.4 307.343C377.2 306.01 377.733 303.743 377.733 302.143C377.733 300.677 378.533 298.677 379.467 297.61C381.733 295.343 389.333 272.543 396.267 246.943C398.533 238.277 399.733 233.21 402.933 216.277C408.4 188.01 412.4 144.41 412.4 112.943V94.6768L391.467 93.8768C369.867 93.0768 356.667 91.0768 342.133 86.5435L333.733 83.8768V98.5435C333.733 106.543 333.067 114.277 332.267 115.877C330.133 119.877 329.2 119.61 354.4 124.277C378.267 128.677 375.733 127.343 375.467 134.943C375.067 149.077 368.667 198.677 364.933 216.677C359.333 244.01 348 283.343 344.8 286.41C344.267 286.943 334.133 283.477 322.4 278.677C301.467 270.143 291.333 263.877 281.867 253.877C278.133 249.743 271.2 247.877 269.6 250.41C269.067 251.343 268.133 256.677 267.6 262.277C267.2 267.743 265.867 276.143 264.8 280.943C263.733 285.743 262.533 292.943 262.133 296.943C261.733 300.943 260.933 304.543 260.4 304.943C259.733 305.343 257.467 312.143 255.067 320.277C248.133 344.277 238.133 373.343 231.733 387.877C222.133 409.477 216.4 414.81 224 394.943C232.667 372.277 237.6 355.877 237.733 350.01C237.733 346.543 235.6 335.477 232.933 325.343C230.267 315.21 227.867 305.61 227.467 304.143C227.067 302.41 228.533 297.743 231.067 292.81C233.467 287.743 235.6 281.21 236 276.943C236.667 270.277 236.4 269.077 233.067 265.21C228.933 260.277 225.2 259.877 220.4 263.61C218.533 265.077 216.133 266.277 214.933 266.277C212.267 266.277 205.733 263.21 205.733 261.877C205.733 259.61 199.2 261.21 196.267 264.41C191.333 269.61 191.867 280.277 197.6 291.877C200.667 298.143 201.867 302.01 201.333 304.543C200.533 308.943 194.133 333.21 192.4 339.077C189.733 347.343 191.2 357.343 197.733 374.943C199.333 379.343 200.933 384.01 201.333 385.21C201.733 386.543 202.533 387.61 203.2 387.61C203.867 387.61 204.4 389.21 204.4 391.077C204.4 392.943 204.933 395.477 205.6 396.677C206.133 397.877 207.067 400.81 207.467 403.21C208.133 406.677 207.867 407.343 206.4 406.677C205.333 406.277 204.4 405.477 204.4 404.943C204.4 404.277 202.267 399.343 199.6 393.743C182.933 358.01 161.333 283.077 160 256.277C159.733 249.61 159.733 249.61 155.333 249.877C152.533 250.01 149.467 251.343 147.333 253.477C142.933 257.743 137.067 262.677 131.733 266.943C126.8 270.677 72.1333 293.077 70.8 291.877C69.2 290.143 58 255.077 53.2 236.81C45.6 207.743 39.2 162.81 39.0667 139.477C39.0667 126.943 39.4667 126.277 46.9333 126.277C50.9333 126.277 75.0667 121.477 80.4 119.61C82.2667 119.077 86.4 117.743 89.7333 116.81L95.7333 115.21V98.4102C95.7333 89.2101 96.2667 80.2768 96.8 78.5435C98.1333 74.8102 97.2 74.8102 89.7333 78.6768Z" fill="white"/>
</svg>
