<svg width="413" height="488" viewBox="0 0 413 488" fill="none" xmlns="http://www.w3.org/2000/svg">
<path d="M208.667 0.666686C207.6 0.933353 202.133 1.86669 196.667 2.80002C191.2 3.73335 184.667 5.33335 182.133 6.26669L177.733 8.13335L178.533 17.7334C179.067 23.0667 180 30.8 180.667 34.9334C181.467 39.2 182.533 46.1334 183.333 50.2667C185.6 64.1334 186.533 82.1334 184.8 80.5334C184 79.7334 183.067 77.8667 182.8 76.4C182.533 74.9334 181.6 71.4667 180.8 68.5334C179.467 63.4667 175.333 45.6 172.533 33.3334C170.133 22.8 168.267 17.3334 166.533 15.8667C164.4 14.1334 158.933 16.8 152.667 22.9334C136.4 38.8 130.4 49.0667 125.867 69.8667C124.4 76.5334 123.467 78 119.067 80.8L114 84V97.0667C114 110.933 114.533 112.533 118.667 113.867C121.2 114.533 121.333 115.867 121.467 132.933C121.467 148.533 122 152.8 124.667 161.067C127.6 170.133 129.733 173.467 135.733 177.733C137.2 178.667 139.333 183.6 140.8 189.333C142.267 194.8 144.267 200 145.333 200.8C146.4 201.6 147.333 203.467 147.333 204.8C147.467 212 167.733 231.333 182.667 238.533C195.2 244.667 200.4 245.867 214.667 245.867C228.933 245.867 234.133 244.667 246.8 238.533C256 234.133 261.867 229.467 272.8 218.4C281.2 209.6 286.133 200.4 288.8 188.133C290.267 181.2 291.333 179.067 294.267 177.467C300.533 173.867 304.533 165.333 307.333 149.067C308.933 139.067 308.667 122.8 306.667 118.267C305.867 116.4 306.533 115.6 309.867 114.267C314.667 112.533 316.667 107.867 316.667 98.6667C316.667 87.8667 315.333 83.8667 310.667 81.2C305.733 78.2667 304.133 75.4667 301.867 64.6667C298.8 49.7334 292.667 39.2 279.867 26.2667C268.667 14.9334 262 12.1334 262 18.8C262 20.1334 261.467 21.3334 260.8 21.3334C260.133 21.3334 258.4 26.9334 256.8 33.6C246.8 76.4 245.867 79.8667 244.533 80.8C241.867 82.4 243.067 68.6667 248.8 33.3334C249.467 28.5334 250.533 20.9334 250.933 16.4C251.733 8.13335 251.6 8.00002 247.867 6.53335C238.933 3.06669 214.267 -0.666647 208.667 0.666686ZM162 130C176.667 134.267 217.733 135.867 245.867 133.2C261.867 131.733 268.4 130.267 280.4 125.467L287.467 122.667L288.667 126.133C290.4 130.533 290.267 135.867 288.133 147.333C286 159.067 284.267 162.4 278.667 164.8C273.067 167.067 272.933 167.2 270.667 179.333C267.733 194.133 262.8 203.333 252.933 212.267C248.267 216.4 241.067 221.6 236.933 223.6C230 227.067 228 227.333 214.667 227.333C201.2 227.333 199.333 227.067 192 223.467C174.4 214.8 158 192 158 176.267C158 171.2 154.933 166.533 150.4 164.667C144.267 162.133 141.867 155.733 141.067 139.867C140 122.267 140.133 122 148.933 125.467C152.8 127.067 158.667 129.067 162 130Z" fill="white"/>
<path d="M89.9999 79.0667C68.6666 89.8667 45.5999 94.6667 14.7999 94.6667H0.266602L1.19993 118.933C3.0666 171.467 8.93327 215.467 18.5333 251.333C23.0666 267.867 29.0666 286 30.6666 287.333C31.4666 288 32.6666 291.333 33.1999 294.667C33.7333 297.867 34.5333 301.2 35.1999 302C35.7333 302.667 37.5999 306.933 39.3333 311.333C42.6666 319.867 49.5999 334 57.4666 348C64.7999 361.333 84.6666 390.667 87.4666 392.4C88.9333 393.333 89.9999 394.533 89.9999 395.333C89.9999 396.8 93.9999 401.333 113.733 422.4C128 437.733 144.133 452 147.333 452C148.267 452 148.667 452.4 148.267 452.8C146.4 454.667 169.467 470 192 482C203.867 488.4 209.333 488.533 220 483.2C249.067 468.533 277.333 447.333 302.8 421.2C310.133 413.6 317.333 405.6 318.667 403.6C320 401.467 322.8 398 324.8 395.867C328.4 392.133 350 360.933 350 359.6C350 359.2 352.533 354.8 355.6 349.867C358.667 344.8 364.4 333.733 368.267 325.333C372.267 316.933 376 308.933 376.667 307.733C377.467 306.4 378 304.133 378 302.533C378 301.067 378.8 299.067 379.733 298C382 295.733 389.6 272.933 396.533 247.333C398.8 238.667 400 233.6 403.2 216.667C408.667 188.4 412.667 144.8 412.667 113.333V95.0667L391.733 94.2667C370.133 93.4667 356.933 91.4667 342.4 86.9334L334 84.2667V98.9334C334 106.933 333.333 114.667 332.533 116.267C330.4 120.267 329.467 120 354.667 124.667C378.533 129.067 376 127.733 375.733 135.333C375.333 149.467 368.933 199.067 365.2 217.067C359.6 244.4 348.267 283.733 345.067 286.8C344.533 287.333 334.4 283.867 322.667 279.067C301.733 270.533 291.6 264.267 282.133 254.267C278.4 250.133 271.467 248.267 269.867 250.8C269.333 251.733 268.4 257.067 267.867 262.667C267.467 268.133 266.133 276.533 265.067 281.333C264 286.133 262.8 293.333 262.4 297.333C262 301.333 261.2 304.933 260.667 305.333C260 305.733 257.733 312.533 255.333 320.667C248.4 344.667 238.4 373.733 232 388.267C222.4 409.867 216.667 415.2 224.267 395.333C232.933 372.667 237.867 356.267 238 350.4C238 346.933 235.867 335.867 233.2 325.733C230.533 315.6 228.133 306 227.733 304.533C227.333 302.8 228.8 298.133 231.333 293.2C233.733 288.133 235.867 281.6 236.267 277.333C236.933 270.667 236.667 269.467 233.333 265.6C229.2 260.667 225.467 260.267 220.667 264C218.8 265.467 216.4 266.667 215.2 266.667C212.533 266.667 206 263.6 206 262.267C206 260 199.467 261.6 196.533 264.8C191.6 270 192.133 280.667 197.867 292.267C200.933 298.533 202.133 302.4 201.6 304.933C200.8 309.333 194.4 333.6 192.667 339.467C190 347.733 191.467 357.733 198 375.333C199.6 379.733 201.2 384.4 201.6 385.6C202 386.933 202.8 388 203.467 388C204.133 388 204.667 389.6 204.667 391.467C204.667 393.333 205.2 395.867 205.867 397.067C206.4 398.267 207.333 401.2 207.733 403.6C208.4 407.067 208.133 407.733 206.667 407.067C205.6 406.667 204.667 405.867 204.667 405.333C204.667 404.667 202.533 399.733 199.867 394.133C183.2 358.4 161.6 283.467 160.267 256.667C160 250 160 250 155.6 250.267C152.8 250.4 149.733 251.733 147.6 253.867C143.2 258.133 137.333 263.067 132 267.333C127.067 271.067 72.3999 293.467 71.0666 292.267C69.4666 290.533 58.2666 255.467 53.4666 237.2C45.8666 208.133 39.4666 163.2 39.3333 139.867C39.3333 127.333 39.7333 126.667 47.1999 126.667C51.1999 126.667 75.3333 121.867 80.6666 120C82.5333 119.467 86.6666 118.133 89.9999 117.2L95.9999 115.6V98.8C95.9999 89.6 96.5333 80.6667 97.0666 78.9334C98.3999 75.2 97.4666 75.2 89.9999 79.0667Z" fill="white"/>
</svg>
