<svg width="26" height="30" viewBox="0 0 26 30" fill="none" xmlns="http://www.w3.org/2000/svg">
<path d="M19.6067 19.874L23.8962 24.3996L22.479 25.8952L18.1905 21.3685C16.5948 22.7183 14.6101 23.4526 12.565 23.4495C7.58941 23.4495 3.55127 19.1881 3.55127 13.9374C3.55127 8.68671 7.58941 4.42529 12.565 4.42529C17.5405 4.42529 21.5787 8.68671 21.5787 13.9374C21.5816 16.0956 20.8858 18.1901 19.6067 19.874ZM17.5976 19.0898C18.8684 17.7102 19.5782 15.8613 19.5756 13.9374C19.5756 9.85036 16.4379 6.53909 12.565 6.53909C8.69208 6.53909 5.55431 9.85036 5.55431 13.9374C5.55431 18.0244 8.69208 21.3357 12.565 21.3357C14.3881 21.3384 16.1401 20.5893 17.4474 19.2483L17.5976 19.0898Z" fill="#486284"/>
</svg>
