<svg width="25" height="24" viewBox="0 0 25 24" fill="none" xmlns="http://www.w3.org/2000/svg">
<path fill-rule="evenodd" clip-rule="evenodd" d="M8.63428 7C8.63428 5.93913 9.0557 4.92172 9.80585 4.17157C10.556 3.42143 11.5734 3 12.6343 3C13.6951 3 14.7126 3.42143 15.4627 4.17157C16.2129 4.92172 16.6343 5.93913 16.6343 7C16.6343 8.06087 16.2129 9.07828 15.4627 9.82843C14.7126 10.5786 13.6951 11 12.6343 11C11.5734 11 10.556 10.5786 9.80585 9.82843C9.0557 9.07828 8.63428 8.06087 8.63428 7ZM8.63428 13C7.30819 13 6.03643 13.5268 5.09874 14.4645C4.16106 15.4021 3.63428 16.6739 3.63428 18C3.63428 18.7956 3.95035 19.5587 4.51296 20.1213C5.07557 20.6839 5.83863 21 6.63428 21H18.6343C19.4299 21 20.193 20.6839 20.7556 20.1213C21.3182 19.5587 21.6343 18.7956 21.6343 18C21.6343 16.6739 21.1075 15.4021 20.1698 14.4645C19.2321 13.5268 17.9604 13 16.6343 13H8.63428Z" fill="#486284"/>
</svg>
