<svg width="25" height="24" viewBox="0 0 25 24" fill="none" xmlns="http://www.w3.org/2000/svg">
<path d="M12.6343 22C13.2536 22.0008 13.8577 21.8086 14.3628 21.4502C14.8678 21.0917 15.2486 20.5849 15.4523 20H9.81628C10.0199 20.5849 10.4008 21.0917 10.9058 21.4502C11.4108 21.8086 12.015 22.0008 12.6343 22ZM19.6343 14.586V10C19.6343 6.783 17.4493 4.073 14.4893 3.258C14.1963 2.52 13.4803 2 12.6343 2C11.7883 2 11.0723 2.52 10.7793 3.258C7.81928 4.074 5.63428 6.783 5.63428 10V14.586L3.92728 16.293C3.73973 16.4805 3.63433 16.7348 3.63428 17V18C3.63428 18.2652 3.73963 18.5196 3.92717 18.7071C4.11471 18.8946 4.36906 19 4.63428 19H20.6343C20.8995 19 21.1539 18.8946 21.3414 18.7071C21.5289 18.5196 21.6343 18.2652 21.6343 18V17C21.6342 16.7348 21.5288 16.4805 21.3413 16.293L19.6343 14.586Z" fill="#486284"/>
</svg>
